# 3ds Max Wavefront OBJ Exporter v0.97b - (c)2007 guruware
# File Created: 06.06.2013 01:57:25

mtllib battery.mtl

#
# object Cylinder001
#

v  10.0000 0.0000 -0.0000
v  9.2388 0.0000 -3.8268
v  9.2388 30.0000 -3.8268
v  10.0000 30.0000 -0.0000
v  7.0711 0.0000 -7.0711
v  7.0711 30.0000 -7.0711
v  3.8268 0.0000 -9.2388
v  3.8268 30.0000 -9.2388
v  -0.0000 0.0000 -10.0000
v  -0.0000 30.0000 -10.0000
v  -3.8268 0.0000 -9.2388
v  -3.8268 30.0000 -9.2388
v  -7.0711 0.0000 -7.0711
v  -7.0711 30.0000 -7.0711
v  -9.2388 0.0000 -3.8268
v  -9.2388 30.0000 -3.8268
v  -10.0000 0.0000 -0.0000
v  -10.0000 30.0000 -0.0000
v  -9.2388 0.0000 3.8268
v  -9.2388 30.0000 3.8268
v  -7.0711 0.0000 7.0711
v  -7.0711 30.0000 7.0711
v  -3.8268 0.0000 9.2388
v  -3.8268 30.0000 9.2388
v  0.0000 0.0000 10.0000
v  0.0000 30.0000 10.0000
v  3.8268 0.0000 9.2388
v  3.8268 30.0000 9.2388
v  7.0711 0.0000 7.0711
v  7.0711 30.0000 7.0711
v  9.2388 0.0000 3.8268
v  9.2388 30.0000 3.8268
v  5.0000 0.0000 -0.0000
v  4.6194 0.0000 -1.9134
v  3.5355 0.0000 -3.5355
v  1.9134 0.0000 -4.6194
v  -0.0000 0.0000 -5.0000
v  -1.9134 0.0000 -4.6194
v  -3.5355 0.0000 -3.5355
v  -4.6194 0.0000 -1.9134
v  -5.0000 0.0000 -0.0000
v  -4.6194 0.0000 1.9134
v  -3.5355 0.0000 3.5355
v  -1.9134 0.0000 4.6194
v  0.0000 0.0000 5.0000
v  1.9134 0.0000 4.6194
v  3.5355 0.0000 3.5355
v  4.6194 0.0000 1.9134
v  0.0000 0.0000 -0.0000
v  4.6194 30.0000 -1.9134
v  5.0000 30.0000 -0.0000
v  3.5355 30.0000 -3.5355
v  1.9134 30.0000 -4.6194
v  -0.0000 30.0000 -5.0000
v  -1.9134 30.0000 -4.6194
v  -3.5355 30.0000 -3.5355
v  -4.6194 30.0000 -1.9134
v  -5.0000 30.0000 -0.0000
v  -4.6194 30.0000 1.9134
v  -3.5355 30.0000 3.5355
v  -1.9134 30.0000 4.6194
v  0.0000 30.0000 5.0000
v  1.9134 30.0000 4.6194
v  3.5355 30.0000 3.5355
v  4.6194 30.0000 1.9134
v  5.0000 33.0000 -0.0000
v  4.6194 33.0000 -1.9134
v  0.0000 33.0000 -0.0000
v  3.5355 33.0000 -3.5355
v  1.9134 33.0000 -4.6194
v  -0.0000 33.0000 -5.0000
v  -1.9134 33.0000 -4.6194
v  -3.5355 33.0000 -3.5355
v  -4.6194 33.0000 -1.9134
v  -5.0000 33.0000 -0.0000
v  -4.6194 33.0000 1.9134
v  -3.5355 33.0000 3.5355
v  -1.9134 33.0000 4.6194
v  0.0000 33.0000 5.0000
v  1.9134 33.0000 4.6194
v  3.5355 33.0000 3.5355
v  4.6194 33.0000 1.9134
# 82 vertices

vn 1.0000 0.0000 -0.0000
vn 0.9239 0.0000 -0.3827
vn 0.7071 0.0000 -0.7071
vn 0.3827 0.0000 -0.9239
vn -0.0000 0.0000 -1.0000
vn 0.0000 0.0000 -1.0000
vn -0.3827 0.0000 -0.9239
vn -0.7071 0.0000 -0.7071
vn -0.9239 0.0000 -0.3827
vn -1.0000 0.0000 -0.0000
vn -0.9239 0.0000 0.3827
vn -0.7071 0.0000 0.7071
vn -0.3827 0.0000 0.9239
vn 0.0000 0.0000 1.0000
vn -0.0000 0.0000 1.0000
vn 0.3827 0.0000 0.9239
vn 0.7071 0.0000 0.7071
vn 0.9239 0.0000 0.3827
vn 0.0000 -1.0000 -0.0000
vn 0.0000 1.0000 -0.0000
vn 0.9808 0.0000 -0.1951
vn 0.8315 0.0000 -0.5556
vn 0.5556 0.0000 -0.8315
vn 0.1951 0.0000 -0.9808
vn -0.1951 0.0000 -0.9808
vn -0.5556 0.0000 -0.8315
vn -0.8315 0.0000 -0.5556
vn -0.9808 0.0000 -0.1951
vn -0.9808 0.0000 0.1951
vn -0.8315 0.0000 0.5556
vn -0.5556 0.0000 0.8315
vn -0.1951 0.0000 0.9808
vn 0.1951 0.0000 0.9808
vn 0.5556 0.0000 0.8315
vn 0.8315 0.0000 0.5556
vn 0.9808 0.0000 0.1951
# 36 vertex normals

vt 0.0000 0.0000 0.0000
vt 0.0381 0.0000 0.0000
vt 0.0381 0.9091 0.0000
vt 0.0000 0.9091 0.0000
vt 0.1464 0.0000 0.0000
vt 0.1464 0.9091 0.0000
vt 0.3087 0.0000 0.0000
vt 0.3087 0.9091 0.0000
vt 0.5000 0.0000 0.0000
vt 0.5000 0.9091 0.0000
vt 0.6913 0.0000 0.0000
vt 0.6913 0.9091 0.0000
vt 0.8536 0.0000 0.0000
vt 0.8536 0.9091 0.0000
vt 0.9619 0.0000 0.0000
vt 0.9619 0.9091 0.0000
vt 1.0000 0.0000 0.0000
vt 1.0000 0.9091 0.0000
vt 0.2500 0.0000 0.0000
vt 0.2690 0.0000 0.0000
vt 0.3232 0.0000 0.0000
vt 0.4043 0.0000 0.0000
vt 0.5957 0.0000 0.0000
vt 0.6768 0.0000 0.0000
vt 0.7310 0.0000 0.0000
vt 0.7500 0.0000 0.0000
vt 0.2690 0.9091 0.0000
vt 0.2500 0.9091 0.0000
vt 0.3232 0.9091 0.0000
vt 0.4043 0.9091 0.0000
vt 0.5957 0.9091 0.0000
vt 0.6768 0.9091 0.0000
vt 0.7310 0.9091 0.0000
vt 0.7500 0.9091 0.0000
vt 0.2500 1.0000 0.0000
vt 0.2690 1.0000 0.0000
vt 0.5000 1.0000 0.0000
vt 0.3232 1.0000 0.0000
vt 0.4043 1.0000 0.0000
vt 0.5957 1.0000 0.0000
vt 0.6768 1.0000 0.0000
vt 0.7310 1.0000 0.0000
vt 0.7500 1.0000 0.0000
# 43 texture coords

g Cylinder001
usemtl Material__33
s 8
f 1/1/1 2/2/2 3/3/2 4/4/1 
f 2/2/2 5/5/3 6/6/3 3/3/2 
f 5/5/3 7/7/4 8/8/4 6/6/3 
f 7/7/4 9/9/5 10/10/6 8/8/4 
f 9/9/5 11/11/7 12/12/7 10/10/6 
f 11/11/7 13/13/8 14/14/8 12/12/7 
f 13/13/8 15/15/9 16/16/9 14/14/8 
f 15/15/9 17/17/10 18/18/10 16/16/9 
f 17/17/10 19/15/11 20/16/11 18/18/10 
f 19/15/11 21/13/12 22/14/12 20/16/11 
f 21/13/12 23/11/13 24/12/13 22/14/12 
f 23/11/13 25/9/14 26/10/15 24/12/13 
f 25/9/14 27/7/16 28/8/16 26/10/15 
f 27/7/16 29/5/17 30/6/17 28/8/16 
f 29/5/17 31/2/18 32/3/18 30/6/17 
f 31/2/18 1/1/1 4/4/1 32/3/18 
s 1
f 2/2/19 1/1/19 33/19/19 34/20/19 
f 5/5/19 2/2/19 34/20/19 35/21/19 
f 7/7/19 5/5/19 35/21/19 36/22/19 
f 9/9/19 7/7/19 36/22/19 37/9/19 
f 11/11/19 9/9/19 37/9/19 38/23/19 
f 13/13/19 11/11/19 38/23/19 39/24/19 
f 15/15/19 13/13/19 39/24/19 40/25/19 
f 17/17/19 15/15/19 40/25/19 41/26/19 
f 19/15/19 17/17/19 41/26/19 42/25/19 
f 21/13/19 19/15/19 42/25/19 43/24/19 
f 23/11/19 21/13/19 43/24/19 44/23/19 
f 25/9/19 23/11/19 44/23/19 45/9/19 
f 27/7/19 25/9/19 45/9/19 46/22/19 
f 29/5/19 27/7/19 46/22/19 47/21/19 
f 31/2/19 29/5/19 47/21/19 48/20/19 
f 1/1/19 31/2/19 48/20/19 33/19/19 
f 34/20/19 33/19/19 49/9/19 
f 35/21/19 34/20/19 49/9/19 
f 36/22/19 35/21/19 49/9/19 
f 37/9/19 36/22/19 49/9/19 
f 38/23/19 37/9/19 49/9/19 
f 39/24/19 38/23/19 49/9/19 
f 40/25/19 39/24/19 49/9/19 
f 41/26/19 40/25/19 49/9/19 
f 42/25/19 41/26/19 49/9/19 
f 43/24/19 42/25/19 49/9/19 
f 44/23/19 43/24/19 49/9/19 
f 45/9/19 44/23/19 49/9/19 
f 46/22/19 45/9/19 49/9/19 
f 47/21/19 46/22/19 49/9/19 
f 48/20/19 47/21/19 49/9/19 
f 33/19/19 48/20/19 49/9/19 
f 4/4/20 3/3/20 50/27/20 51/28/20 
f 3/3/20 6/6/20 52/29/20 50/27/20 
f 6/6/20 8/8/20 53/30/20 52/29/20 
f 8/8/20 10/10/20 54/10/20 53/30/20 
f 10/10/20 12/12/20 55/31/20 54/10/20 
f 12/12/20 14/14/20 56/32/20 55/31/20 
f 14/14/20 16/16/20 57/33/20 56/32/20 
f 16/16/20 18/18/20 58/34/20 57/33/20 
f 18/18/20 20/16/20 59/33/20 58/34/20 
f 20/16/20 22/14/20 60/32/20 59/33/20 
f 22/14/20 24/12/20 61/31/20 60/32/20 
f 24/12/20 26/10/20 62/10/20 61/31/20 
f 26/10/20 28/8/20 63/30/20 62/10/20 
f 28/8/20 30/6/20 64/29/20 63/30/20 
f 30/6/20 32/3/20 65/27/20 64/29/20 
f 32/3/20 4/4/20 51/28/20 65/27/20 
f 66/35/20 67/36/20 68/37/20 
f 67/36/20 69/38/20 68/37/20 
f 69/38/20 70/39/20 68/37/20 
f 70/39/20 71/37/20 68/37/20 
f 71/37/20 72/40/20 68/37/20 
f 72/40/20 73/41/20 68/37/20 
f 73/41/20 74/42/20 68/37/20 
f 74/42/20 75/43/20 68/37/20 
f 75/43/20 76/42/20 68/37/20 
f 76/42/20 77/41/20 68/37/20 
f 77/41/20 78/40/20 68/37/20 
f 78/40/20 79/37/20 68/37/20 
f 79/37/20 80/39/20 68/37/20 
f 80/39/20 81/38/20 68/37/20 
f 81/38/20 82/36/20 68/37/20 
f 82/36/20 66/35/20 68/37/20 
s off
f 51/28/21 50/27/21 67/36/21 66/35/21 
f 50/27/22 52/29/22 69/38/22 67/36/22 
f 52/29/23 53/30/23 70/39/23 69/38/23 
f 53/30/24 54/10/24 71/37/24 70/39/24 
f 54/10/25 55/31/25 72/40/25 71/37/25 
f 55/31/26 56/32/26 73/41/26 72/40/26 
f 56/32/27 57/33/27 74/42/27 73/41/27 
f 57/33/28 58/34/28 75/43/28 74/42/28 
f 58/34/29 59/33/29 76/42/29 75/43/29 
f 59/33/30 60/32/30 77/41/30 76/42/30 
f 60/32/31 61/31/31 78/40/31 77/41/31 
f 61/31/32 62/10/32 79/37/32 78/40/32 
f 62/10/33 63/30/33 80/39/33 79/37/33 
f 63/30/34 64/29/34 81/38/34 80/39/34 
f 64/29/35 65/27/35 82/36/35 81/38/35 
f 65/27/36 51/28/36 66/35/36 82/36/36 
# 64 polygons - 32 triangles

