# 3ds Max Wavefront OBJ Exporter v0.97b - (c)2007 guruware
# File Created: 30.04.2013 00:41:51

mtllib roomWithStairs.mtl

#
# object Box001
#

v  -19.5750 2.0000 60.0000
v  0.0000 2.0000 60.0000
v  0.0000 2.0000 -60.0000
v  -19.5750 2.0000 -60.0000
v  0.0000 50.0000 58.0000
v  0.0000 0.0000 58.0000
v  -19.5750 0.0000 58.0000
v  -19.5750 50.0000 58.0000
v  0.0000 50.0000 -58.0000
v  0.0000 0.0000 -58.0000
v  19.5750 0.0000 -58.0000
v  19.5750 50.0000 -58.0000
v  43.0000 50.0000 -8.5714
v  43.0000 38.3333 -8.5714
v  43.0000 38.3333 8.5714
v  43.0000 50.0000 8.5714
v  43.0000 0.0000 8.5714
v  43.0000 21.6667 8.5714
v  43.0000 21.6667 -8.5714
v  43.0000 0.0000 -8.5714
v  43.0000 38.3333 -60.0000
v  43.0000 21.6667 -60.0000
v  43.0000 21.6667 -42.8571
v  43.0000 38.3333 -42.8571
v  43.0000 38.3333 -25.7143
v  43.0000 21.6667 -25.7143
v  43.0000 21.6667 60.0000
v  43.0000 38.3333 60.0000
v  43.0000 38.3333 42.8571
v  43.0000 21.6667 42.8571
v  43.0000 21.6667 25.7143
v  43.0000 38.3333 25.7143
v  43.0000 50.0000 -60.0000
v  43.0000 50.0000 -42.8571
v  43.0000 50.0000 -25.7143
v  43.0000 50.0000 60.0000
v  43.0000 50.0000 42.8571
v  43.0000 50.0000 25.7143
v  43.0000 0.0000 60.0000
v  43.0000 0.0000 42.8571
v  43.0000 0.0000 25.7143
v  43.0000 0.0000 -60.0000
v  43.0000 0.0000 -42.8571
v  43.0000 0.0000 -25.7143
v  45.0000 0.0000 42.8571
v  45.0000 0.0000 60.0000
v  45.0000 21.6667 60.0000
v  45.0000 38.3333 60.0000
v  45.0000 50.0000 60.0000
v  45.0000 50.0000 42.8571
v  45.0000 50.0000 25.7143
v  45.0000 50.0000 8.5714
v  45.0000 50.0000 -8.5714
v  45.0000 50.0000 -25.7143
v  45.0000 50.0000 -42.8571
v  45.0000 50.0000 -60.0000
v  45.0000 38.3333 -60.0000
v  45.0000 21.6667 -60.0000
v  45.0000 0.0000 -60.0000
v  45.0000 0.0000 -42.8571
v  45.0000 0.0000 -25.7143
v  45.0000 0.0000 -8.5714
v  45.0000 0.0000 8.5714
v  45.0000 0.0000 25.7143
v  45.0000 38.3333 25.7143
v  45.0000 38.3333 42.8571
v  45.0000 21.6667 42.8571
v  45.0000 21.6667 25.7143
v  45.0000 38.3333 -8.5714
v  45.0000 38.3333 8.5714
v  45.0000 21.6667 8.5714
v  45.0000 21.6667 -8.5714
v  45.0000 38.3333 -42.8571
v  45.0000 38.3333 -25.7143
v  45.0000 21.6667 -25.7143
v  45.0000 21.6667 -42.8571
v  -43.0000 50.0000 8.5714
v  -43.0000 38.3333 8.5714
v  -43.0000 38.3333 -8.5714
v  -43.0000 50.0000 -8.5714
v  -43.0000 0.0000 -8.5714
v  -43.0000 21.6667 -8.5714
v  -43.0000 21.6667 8.5714
v  -43.0000 0.0000 8.5714
v  -43.0000 38.3333 60.0000
v  -43.0000 21.6667 60.0000
v  -43.0000 21.6667 42.8571
v  -43.0000 38.3333 42.8571
v  -43.0000 38.3333 25.7143
v  -43.0000 21.6667 25.7143
v  -43.0000 21.6667 -60.0000
v  -43.0000 38.3333 -60.0000
v  -43.0000 38.3333 -42.8571
v  -43.0000 21.6667 -42.8571
v  -43.0000 21.6667 -25.7143
v  -43.0000 38.3333 -25.7143
v  -43.0000 50.0000 60.0000
v  -43.0000 50.0000 42.8571
v  -43.0000 50.0000 25.7143
v  -43.0000 50.0000 -60.0000
v  -43.0000 50.0000 -42.8571
v  -43.0000 50.0000 -25.7143
v  -43.0000 0.0000 -60.0000
v  -43.0000 0.0000 -42.8571
v  -43.0000 0.0000 -25.7143
v  -43.0000 0.0000 60.0000
v  -43.0000 0.0000 42.8571
v  -43.0000 0.0000 25.7143
v  -45.0000 0.0000 -42.8571
v  -45.0000 0.0000 -60.0000
v  -45.0000 21.6667 -60.0000
v  -45.0000 38.3333 -60.0000
v  -45.0000 50.0000 -60.0000
v  -45.0000 50.0000 -42.8571
v  -45.0000 50.0000 -25.7143
v  -45.0000 50.0000 -8.5714
v  -45.0000 50.0000 8.5714
v  -45.0000 50.0000 25.7143
v  -45.0000 50.0000 42.8571
v  -45.0000 50.0000 60.0000
v  -45.0000 38.3333 60.0000
v  -45.0000 21.6667 60.0000
v  -45.0000 0.0000 60.0000
v  -45.0000 0.0000 42.8571
v  -45.0000 0.0000 25.7143
v  -45.0000 0.0000 8.5714
v  -45.0000 0.0000 -8.5714
v  -45.0000 0.0000 -25.7143
v  -45.0000 38.3333 -25.7143
v  -45.0000 38.3333 -42.8571
v  -45.0000 21.6667 -42.8571
v  -45.0000 21.6667 -25.7143
v  -45.0000 38.3333 8.5714
v  -45.0000 38.3333 -8.5714
v  -45.0000 21.6667 -8.5714
v  -45.0000 21.6667 8.5714
v  -45.0000 38.3333 42.8571
v  -45.0000 38.3333 25.7143
v  -45.0000 21.6667 25.7143
v  -45.0000 21.6667 42.8571
v  0.0000 0.0000 60.0000
v  19.5750 0.0000 58.0000
v  19.5750 0.0000 60.0000
v  -45.0000 21.6667 58.0000
v  -45.0000 0.0000 58.0000
v  -45.0000 38.3333 58.0000
v  -45.0000 50.0000 58.0000
v  0.0000 50.0000 60.0000
v  -19.5750 50.0000 60.0000
v  45.0000 38.3333 58.0000
v  45.0000 50.0000 58.0000
v  45.0000 21.6667 58.0000
v  45.0000 0.0000 58.0000
v  -45.0000 2.0000 -42.8571
v  -45.0000 2.0000 -60.0000
v  -45.0000 2.0000 -25.7143
v  -45.0000 2.0000 -8.5714
v  -45.0000 2.0000 8.5714
v  -45.0000 2.0000 25.7143
v  -45.0000 2.0000 42.8571
v  -45.0000 2.0000 60.0000
v  -19.5750 0.0000 60.0000
v  45.0000 2.0000 42.8571
v  45.0000 2.0000 60.0000
v  45.0000 2.0000 25.7143
v  45.0000 2.0000 8.5714
v  45.0000 2.0000 -8.5714
v  45.0000 2.0000 -25.7143
v  45.0000 2.0000 -42.8571
v  45.0000 2.0000 -60.0000
v  0.0000 0.0000 -60.0000
v  19.5750 2.0000 -60.0000
v  19.5750 0.0000 -60.0000
v  -19.5750 0.0000 -58.0000
v  -19.5750 0.0000 -60.0000
v  45.0000 21.6667 -58.0000
v  45.0000 0.0000 -58.0000
v  45.0000 38.3333 -58.0000
v  45.0000 50.0000 -58.0000
v  0.0000 50.0000 -60.0000
v  19.5750 50.0000 -60.0000
v  -45.0000 38.3333 -58.0000
v  -45.0000 50.0000 -58.0000
v  -45.0000 21.6667 -58.0000
v  -45.0000 0.0000 -58.0000
v  0.0000 48.0000 60.0000
v  19.5750 48.0000 60.0000
v  19.5750 50.0000 60.0000
v  -45.0000 48.0000 42.8571
v  -45.0000 48.0000 60.0000
v  -45.0000 48.0000 25.7143
v  -45.0000 48.0000 8.5714
v  -45.0000 48.0000 -8.5714
v  -45.0000 48.0000 -25.7143
v  -45.0000 48.0000 -42.8571
v  -45.0000 48.0000 -60.0000
v  0.0000 48.0000 -60.0000
v  -19.5750 48.0000 -60.0000
v  -19.5750 50.0000 -60.0000
v  45.0000 48.0000 -42.8571
v  45.0000 48.0000 -60.0000
v  45.0000 48.0000 -25.7143
v  45.0000 48.0000 -8.5714
v  45.0000 48.0000 8.5714
v  45.0000 48.0000 25.7143
v  45.0000 48.0000 42.8571
v  45.0000 48.0000 60.0000
v  19.5750 2.0000 60.0000
v  19.5750 48.0000 58.0000
v  19.5750 48.0000 -58.0000
v  43.0000 48.0000 -58.0000
v  43.0000 48.0000 -42.8571
v  43.0000 48.0000 -25.7143
v  43.0000 48.0000 -8.5714
v  43.0000 48.0000 8.5714
v  43.0000 48.0000 25.7143
v  43.0000 48.0000 42.8571
v  43.0000 48.0000 58.0000
v  0.0000 48.0000 -58.0000
v  2.0000 48.0000 58.0000
v  2.0000 48.0000 37.0000
v  -21.5750 48.0000 58.0000
v  -43.0000 48.0000 58.0000
v  -43.0000 48.0000 42.8571
v  -43.0000 48.0000 25.7143
v  -43.0000 48.0000 8.5714
v  -43.0000 48.0000 -8.5714
v  -43.0000 48.0000 -25.7143
v  -43.0000 48.0000 -42.8571
v  -43.0000 48.0000 -58.0000
v  -19.5750 48.0000 -58.0000
v  -21.5750 48.0000 37.0000
v  19.5750 50.0000 58.0000
v  -19.5750 50.0000 -58.0000
v  -19.5750 48.0000 60.0000
v  19.5750 48.0000 -60.0000
v  0.0000 48.0000 39.0000
v  -19.5750 48.0000 39.0000
# 238 vertices

vn 0.0000 1.0000 -0.0000
vn 0.0000 0.0000 -1.0000
vn 0.0000 0.0000 1.0000
vn -1.0000 0.0000 -0.0000
vn 0.0000 -1.0000 -0.0000
vn 0.0000 -0.0000 1.0000
vn 1.0000 0.0000 -0.0000
vn 0.0000 -0.0000 -1.0000
vn 0.0000 1.0000 0.0000
# 9 vertex normals

vt 0.7175 0.0000 0.0000
vt 0.5000 0.0000 0.0000
vt 0.5000 1.0000 0.0000
vt 0.7175 1.0000 0.0000
vt 0.2825 0.0000 0.0000
vt 0.2825 1.0000 0.0000
vt 0.5714 1.0000 0.0000
vt 0.5714 0.7667 0.0000
vt 0.4286 0.7667 0.0000
vt 0.4286 1.0000 0.0000
vt 0.4286 0.0000 0.0000
vt 0.4286 0.4333 0.0000
vt 0.5714 0.4333 0.0000
vt 0.5714 0.0000 0.0000
vt 1.0000 0.7667 0.0000
vt 1.0000 0.4333 0.0000
vt 0.8571 0.4333 0.0000
vt 0.8571 0.7667 0.0000
vt 0.7143 0.7667 0.0000
vt 0.7143 0.4333 0.0000
vt 0.0000 0.4333 0.0000
vt 0.0000 0.7667 0.0000
vt 0.1429 0.7667 0.0000
vt 0.1429 0.4333 0.0000
vt 0.2857 0.4333 0.0000
vt 0.2857 0.7667 0.0000
vt 1.0000 1.0000 0.0000
vt 0.8571 1.0000 0.0000
vt 0.7143 1.0000 0.0000
vt 0.0000 1.0000 0.0000
vt 0.1429 1.0000 0.0000
vt 0.2857 1.0000 0.0000
vt 0.0000 0.0000 0.0000
vt 0.1429 0.0000 0.0000
vt 0.2857 0.0000 0.0000
vt 1.0000 0.0000 0.0000
vt 0.8571 0.0000 0.0000
vt 0.7143 0.0000 0.0000
vt 0.0000 0.1429 0.0000
vt 1.0000 0.1429 0.0000
vt 1.0000 0.2857 0.0000
vt 1.0000 0.4286 0.0000
vt 1.0000 0.5714 0.0000
vt 1.0000 0.7143 0.0000
vt 1.0000 0.8571 0.0000
vt 0.0000 0.8571 0.0000
vt 0.0000 0.7143 0.0000
vt 0.0000 0.5714 0.0000
vt 0.0000 0.4286 0.0000
vt 0.0000 0.2857 0.0000
vt 0.5000 0.1750 0.0000
vt 0.2825 0.1750 0.0000
# 52 texture coords

g Box001
usemtl wire_225087143
s 2
f 1/1/1 2/2/1 3/3/1 4/4/1 
s 8
f 5/3/2 6/2/2 7/5/2 8/6/2 
s 32
f 9/3/3 10/2/3 11/5/3 12/6/3 
s 16
f 13/7/4 14/8/4 15/9/4 16/10/4 
f 17/11/4 18/12/4 19/13/4 20/14/4 
f 21/15/4 22/16/4 23/17/4 24/18/4 
f 25/19/4 26/20/4 19/13/4 14/8/4 
f 27/21/4 28/22/4 29/23/4 30/24/4 
f 31/25/4 32/26/4 15/9/4 18/12/4 
f 33/27/4 21/15/4 24/18/4 34/28/4 
f 34/28/4 24/18/4 25/19/4 35/29/4 
f 35/29/4 25/19/4 14/8/4 13/7/4 
f 28/22/4 36/30/4 37/31/4 29/23/4 
f 29/23/4 37/31/4 38/32/4 32/26/4 
f 32/26/4 38/32/4 16/10/4 15/9/4 
f 39/33/4 27/21/4 30/24/4 40/34/4 
f 40/34/4 30/24/4 31/25/4 41/35/4 
f 41/35/4 31/25/4 18/12/4 17/11/4 
f 22/16/4 42/36/4 43/37/4 23/17/4 
f 23/17/4 43/37/4 44/38/4 26/20/4 
f 26/20/4 44/38/4 20/14/4 19/13/4 
s off
f 45/39/5 46/33/5 39/33/5 40/34/5 
f 46/36/3 47/16/3 27/21/3 39/33/3 
f 47/16/3 48/15/3 28/22/3 27/21/3 
f 48/15/3 49/27/3 36/30/3 28/22/3 
f 49/36/1 50/40/1 37/31/1 36/30/1 
f 50/40/1 51/41/1 38/32/1 37/31/1 
f 51/41/1 52/42/1 16/10/1 38/32/1 
f 52/42/1 53/43/1 13/7/1 16/10/1 
f 53/43/1 54/44/1 35/29/1 13/7/1 
f 54/44/1 55/45/1 34/28/1 35/29/1 
f 55/45/1 56/27/1 33/27/1 34/28/1 
f 56/30/2 57/22/2 21/15/2 33/27/2 
f 57/22/2 58/21/2 22/16/2 21/15/2 
f 58/21/2 59/33/2 42/36/2 22/16/2 
f 59/30/5 60/46/5 43/37/5 42/36/5 
f 60/46/5 61/47/5 44/38/5 43/37/5 
f 61/47/5 62/48/5 20/14/5 44/38/5 
f 62/48/5 63/49/5 17/11/5 20/14/5 
f 63/49/5 64/50/5 41/35/5 17/11/5 
f 64/50/5 45/39/5 40/34/5 41/35/5 
f 65/26/5 66/23/5 29/23/5 32/26/5 
f 66/23/2 67/24/2 30/24/2 29/23/2 
f 67/24/1 68/25/1 31/25/1 30/24/1 
f 68/25/6 65/26/6 32/26/6 31/25/6 
f 69/8/5 70/9/5 15/9/5 14/8/5 
f 70/9/2 71/12/2 18/12/2 15/9/2 
f 71/12/1 72/13/1 19/13/1 18/12/1 
f 72/13/6 69/8/6 14/8/6 19/13/6 
f 73/18/5 74/19/5 25/19/5 24/18/5 
f 74/19/2 75/20/2 26/20/2 25/19/2 
f 75/20/1 76/17/1 23/17/1 26/20/1 
f 76/17/6 73/18/6 24/18/6 23/17/6 
s 64
f 77/7/7 78/8/7 79/9/7 80/10/7 
f 81/11/7 82/12/7 83/13/7 84/14/7 
f 85/15/7 86/16/7 87/17/7 88/18/7 
f 89/19/7 90/20/7 83/13/7 78/8/7 
f 91/21/7 92/22/7 93/23/7 94/24/7 
f 95/25/7 96/26/7 79/9/7 82/12/7 
f 97/27/7 85/15/7 88/18/7 98/28/7 
f 98/28/7 88/18/7 89/19/7 99/29/7 
f 99/29/7 89/19/7 78/8/7 77/7/7 
f 92/22/7 100/30/7 101/31/7 93/23/7 
f 93/23/7 101/31/7 102/32/7 96/26/7 
f 96/26/7 102/32/7 80/10/7 79/9/7 
f 103/33/7 91/21/7 94/24/7 104/34/7 
f 104/34/7 94/24/7 95/25/7 105/35/7 
f 105/35/7 95/25/7 82/12/7 81/11/7 
f 86/16/7 106/36/7 107/37/7 87/17/7 
f 87/17/7 107/37/7 108/38/7 90/20/7 
f 90/20/7 108/38/7 84/14/7 83/13/7 
s off
f 109/45/5 110/27/5 103/33/5 104/34/5 
f 110/36/2 111/16/2 91/21/2 103/33/2 
f 111/16/2 112/15/2 92/22/2 91/21/2 
f 112/15/2 113/27/2 100/30/2 92/22/2 
f 113/30/1 114/46/1 101/31/1 100/30/1 
f 114/46/1 115/47/1 102/32/1 101/31/1 
f 115/47/1 116/48/1 80/10/1 102/32/1 
f 116/48/1 117/49/1 77/7/1 80/10/1 
f 117/49/1 118/50/1 99/29/1 77/7/1 
f 118/50/1 119/39/1 98/28/1 99/29/1 
f 119/39/1 120/33/1 97/27/1 98/28/1 
f 120/30/3 121/22/3 85/15/3 97/27/3 
f 121/22/3 122/21/3 86/16/3 85/15/3 
f 122/21/3 123/33/3 106/36/3 86/16/3 
f 123/36/5 124/40/5 107/37/5 106/36/5 
f 124/40/5 125/41/5 108/38/5 107/37/5 
f 125/41/5 126/42/5 84/14/5 108/38/5 
f 126/42/5 127/43/5 81/11/5 84/14/5 
f 127/43/5 128/44/5 105/35/5 81/11/5 
f 128/44/5 109/45/5 104/34/5 105/35/5 
f 129/26/5 130/23/5 93/23/5 96/26/5 
f 130/23/3 131/24/3 94/24/3 93/23/3 
f 131/24/1 132/25/1 95/25/1 94/24/1 
f 132/25/8 129/26/8 96/26/8 95/25/8 
f 133/8/5 134/9/5 79/9/5 78/8/5 
f 134/9/3 135/12/3 82/12/3 79/9/3 
f 135/12/9 136/13/9 83/13/9 82/12/9 
f 136/13/8 133/8/8 78/8/8 83/13/8 
f 137/18/5 138/19/5 89/19/5 88/18/5 
f 138/19/3 139/20/3 90/20/3 89/19/3 
f 139/20/1 140/17/1 87/17/1 90/20/1 
f 140/17/8 137/18/8 88/18/8 87/17/8 
f 141/2/5 6/2/5 142/1/5 143/5/5 
f 123/33/4 122/21/4 144/21/4 145/33/4 
f 122/21/4 121/22/4 146/22/4 144/21/4 
f 121/22/4 120/30/4 147/30/4 146/22/4 
f 148/2/1 5/3/1 8/6/1 149/5/1 
f 49/27/7 48/15/7 150/15/7 151/27/7 
f 48/15/7 47/16/7 152/16/7 150/15/7 
f 47/16/7 46/36/7 153/36/7 152/16/7 
f 110/27/4 109/45/4 154/45/4 155/27/4 
f 109/45/4 128/44/4 156/44/4 154/45/4 
f 128/44/4 127/43/4 157/43/4 156/44/4 
f 127/43/4 126/42/4 158/42/4 157/43/4 
f 126/42/4 125/41/4 159/41/4 158/42/4 
f 125/41/4 124/40/4 160/40/4 159/41/4 
f 124/40/4 123/36/4 161/36/4 160/40/4 
f 141/2/3 2/2/3 1/1/3 162/1/3 
f 46/33/7 45/39/7 163/39/7 164/33/7 
f 45/39/7 64/50/7 165/50/7 163/39/7 
f 64/50/7 63/49/7 166/49/7 165/50/7 
f 63/49/7 62/48/7 167/48/7 166/49/7 
f 62/48/7 61/47/7 168/47/7 167/48/7 
f 61/47/7 60/46/7 169/46/7 168/47/7 
f 60/46/7 59/30/7 170/30/7 169/46/7 
f 171/2/2 3/3/2 172/6/2 173/5/2 
f 171/2/5 10/2/5 174/1/5 175/1/5 
f 59/33/7 58/21/7 176/21/7 177/33/7 
f 58/21/7 57/22/7 178/22/7 176/21/7 
f 57/22/7 56/30/7 179/30/7 178/22/7 
f 180/3/1 9/3/1 12/6/1 181/4/1 
f 113/27/4 112/15/4 182/15/4 183/27/4 
f 112/15/4 111/16/4 184/16/4 182/15/4 
f 111/16/4 110/36/4 185/36/4 184/16/4 
f 148/2/3 186/2/3 187/1/3 188/1/3 
f 120/33/4 119/39/4 189/39/4 190/33/4 
f 119/39/4 118/50/4 191/50/4 189/39/4 
f 118/50/4 117/49/4 192/49/4 191/50/4 
f 117/49/4 116/48/4 193/48/4 192/49/4 
f 116/48/4 115/47/4 194/47/4 193/48/4 
f 115/47/4 114/46/4 195/46/4 194/47/4 
f 114/46/4 113/30/4 196/30/4 195/46/4 
f 180/3/2 197/3/2 198/6/2 199/6/2 
f 56/27/7 55/45/7 200/45/7 201/27/7 
f 55/45/7 54/44/7 202/44/7 200/45/7 
f 54/44/7 53/43/7 203/43/7 202/44/7 
f 53/43/7 52/42/7 204/42/7 203/43/7 
f 52/42/7 51/41/7 205/41/7 204/42/7 
f 51/41/7 50/40/7 206/40/7 205/41/7 
f 50/40/7 49/36/7 207/36/7 206/40/7 
s 2
f 208/5/1 164/33/1 163/39/1 165/50/1 166/49/1 167/48/1 168/47/1 169/46/1 170/30/1 172/6/1 
f 208/5/1 172/6/1 3/3/1 2/2/1 
f 160/40/1 161/36/1 1/1/1 4/4/1 155/27/1 154/45/1 156/44/1 157/43/1 158/42/1 159/41/1 
s 4
f 209/1/5 210/4/5 211/27/5 212/45/5 213/44/5 214/43/5 215/42/5 216/41/5 217/40/5 218/36/5 
f 219/3/5 210/4/5 209/1/5 220/2/5 221/51/5 
f 222/5/5 223/33/5 224/39/5 225/50/5 226/49/5 227/48/5 228/47/5 229/46/5 230/30/5 231/6/5 232/52/5 
s 8
f 233/4/2 151/27/2 150/15/2 152/16/2 153/36/2 142/1/2 
f 233/4/2 142/1/2 6/2/2 5/3/2 
f 7/5/2 145/33/2 144/21/2 146/22/2 147/30/2 8/6/2 
s 32
f 234/4/3 183/27/3 182/15/3 184/16/3 185/36/3 174/1/3 
f 234/4/3 174/1/3 10/2/3 9/3/3 
f 11/5/3 177/33/3 176/21/3 178/22/3 179/30/3 12/6/3 
s off
f 123/36/5 145/33/5 7/5/5 162/1/5 
f 162/1/5 7/5/5 6/2/5 141/2/5 
f 153/36/5 46/33/5 143/5/5 142/1/5 
f 49/36/1 151/27/1 233/4/1 188/1/1 
f 188/1/1 233/4/1 5/3/1 148/2/1 
f 147/30/1 120/33/1 149/5/1 8/6/1 
f 46/33/3 164/33/3 208/5/3 143/5/3 
f 143/5/3 208/5/3 2/2/3 141/2/3 
f 161/36/3 123/36/3 162/1/3 1/1/3 
f 110/36/2 155/27/2 4/4/2 175/1/2 
f 175/1/2 4/4/2 3/3/2 171/2/2 
f 170/30/2 59/33/2 173/5/2 172/6/2 
f 59/33/5 177/33/5 11/5/5 173/5/5 
f 173/5/5 11/5/5 10/2/5 171/2/5 
f 185/36/5 110/36/5 175/1/5 174/1/5 
f 113/30/1 183/27/1 234/4/1 199/6/1 
f 199/6/1 234/4/1 9/3/1 180/3/1 
f 179/30/1 56/27/1 181/4/1 12/6/1 
f 120/33/3 190/33/3 235/5/3 149/5/3 
f 149/5/3 235/5/3 186/2/3 148/2/3 
f 207/36/3 49/36/3 188/1/3 187/1/3 
f 56/27/2 201/27/2 236/4/2 181/4/2 
f 181/4/2 236/4/2 197/3/2 180/3/2 
f 196/30/2 113/30/2 199/6/2 198/6/2 
s 4
f 219/3/5 221/51/5 232/52/5 231/6/5 
s off
f 235/5/5 190/33/5 223/33/5 222/5/5 
f 190/33/5 189/39/5 224/39/5 223/33/5 
f 189/39/5 191/50/5 225/50/5 224/39/5 
f 191/50/5 192/49/5 226/49/5 225/50/5 
f 192/49/5 193/48/5 227/48/5 226/49/5 
f 193/48/5 194/47/5 228/47/5 227/48/5 
f 194/47/5 195/46/5 229/46/5 228/47/5 
f 195/46/5 196/30/5 230/30/5 229/46/5 
f 196/30/5 198/6/5 231/6/5 230/30/5 
f 198/6/5 197/3/5 219/3/5 231/6/5 
f 197/3/5 236/4/5 210/4/5 219/3/5 
f 236/4/5 201/27/5 211/27/5 210/4/5 
f 201/27/5 200/45/5 212/45/5 211/27/5 
f 200/45/5 202/44/5 213/44/5 212/45/5 
f 202/44/5 203/43/5 214/43/5 213/44/5 
f 203/43/5 204/42/5 215/42/5 214/43/5 
f 204/42/5 205/41/5 216/41/5 215/42/5 
f 205/41/5 206/40/5 217/40/5 216/41/5 
f 206/40/5 207/36/5 218/36/5 217/40/5 
f 207/36/5 187/1/5 209/1/5 218/36/5 
f 187/1/5 186/2/5 220/2/5 209/1/5 
f 186/2/5 237/51/5 221/51/5 220/2/5 
f 237/51/5 238/52/5 232/52/5 221/51/5 
f 238/52/5 235/5/5 222/5/5 232/52/5 
# 212 polygons

#
# object StraightStair001
#

v  13.3333 5.1667 55.0000
v  13.3333 9.3333 55.0000
v  10.0000 9.3333 55.0000
v  10.0000 13.5000 55.0000
v  6.6667 13.5000 55.0000
v  6.6667 17.6667 55.0000
v  3.3333 17.6667 55.0000
v  3.3333 21.8333 55.0000
v  -0.0000 21.8333 55.0000
v  -0.0000 26.0000 55.0000
v  -3.3333 26.0000 55.0000
v  -3.3333 30.1667 55.0000
v  -6.6667 30.1667 55.0000
v  -6.6667 34.3333 55.0000
v  -10.0000 34.3333 55.0000
v  -10.0000 38.5000 55.0000
v  -13.3333 38.5000 55.0000
v  -13.3333 42.6667 55.0000
v  -16.6667 42.6667 55.0000
v  -16.6667 46.8333 55.0000
v  -20.0000 46.8333 55.0000
v  -20.0000 42.6667 55.0000
v  13.3333 1.0000 55.0000
v  16.6667 1.0000 55.0000
v  16.6667 5.1667 55.0000
v  16.6667 1.0000 40.0000
v  13.3333 1.0000 40.0000
v  -20.0000 42.6667 40.0000
v  -20.0000 46.8333 40.0000
v  -16.6667 46.8333 40.0000
v  -16.6667 42.6667 40.0000
v  -13.3333 42.6667 40.0000
v  -13.3333 38.5000 40.0000
v  -10.0000 38.5000 40.0000
v  -10.0000 34.3333 40.0000
v  -6.6667 34.3333 40.0000
v  -6.6667 30.1667 40.0000
v  -3.3333 30.1667 40.0000
v  -3.3333 26.0000 40.0000
v  -0.0000 26.0000 40.0000
v  -0.0000 21.8333 40.0000
v  3.3333 21.8333 40.0000
v  3.3333 17.6667 40.0000
v  6.6667 17.6667 40.0000
v  6.6667 13.5000 40.0000
v  10.0000 13.5000 40.0000
v  10.0000 9.3333 40.0000
v  13.3333 9.3333 40.0000
v  13.3333 5.1667 40.0000
v  16.6667 5.1667 40.0000
v  -20.0000 52.0000 56.0000
v  -20.0000 46.0000 56.0000
v  16.0000 1.0000 56.0000
v  16.6667 1.0000 56.0000
v  16.6667 6.1667 56.0000
v  16.6667 6.1667 55.0000
v  16.0000 1.0000 55.0000
v  -20.0000 46.0000 55.0000
v  -20.0000 52.0000 55.0000
v  -20.0000 52.0000 40.0000
v  -20.0000 46.0000 40.0000
v  16.0000 1.0000 40.0000
v  16.6667 6.1667 40.0000
v  16.6667 6.1667 39.0000
v  16.6667 1.0000 39.0000
v  16.0000 1.0000 39.0000
v  -20.0000 46.0000 39.0000
v  -20.0000 52.0000 39.0000
# 68 vertices

vn -0.0000 0.0000 1.0000
vn 0.0000 0.0000 -1.0000
vn -0.0000 1.0000 -0.0000
vn 1.0000 0.0000 0.0000
vn 1.0000 -0.0000 0.0000
vn 0.0000 -1.0000 0.0000
vn -0.7809 -0.6247 -0.0000
vn -1.0000 -0.0000 -0.0000
vn 0.7809 0.6247 0.0000
# 9 vertex normals

g StraightStair001
usemtl wire_028028177
s 1
f 239//10 240//10 241//10 242//10 243//10 244//10 245//10 246//10 247//10 248//10 249//10 250//10 251//10 252//10 253//10 254//10 255//10 256//10 257//10 258//10 259//10 260//10 261//10 262//10 263//10 
f 264//11 265//11 266//11 267//11 268//11 269//11 270//11 271//11 272//11 273//11 274//11 275//11 276//11 277//11 278//11 279//11 280//11 281//11 282//11 283//11 284//11 285//11 286//11 287//11 288//11 
s 2
f 259//12 258//12 268//12 267//12 
s 4
f 258//13 257//13 269//13 268//13 
s 2
f 257//12 256//12 270//12 269//12 
s 4
f 256//13 255//13 271//13 270//13 
s 2
f 255//12 254//12 272//12 271//12 
s 4
f 254//14 253//14 273//14 272//14 
s 2
f 253//12 252//12 274//12 273//12 
s 4
f 252//13 251//13 275//13 274//13 
s 2
f 251//12 250//12 276//12 275//12 
s 4
f 250//14 249//14 277//14 276//14 
s 2
f 249//12 248//12 278//12 277//12 
s 4
f 248//13 247//13 279//13 278//13 
s 2
f 247//12 246//12 280//12 279//12 
s 4
f 246//14 245//14 281//14 280//14 
s 2
f 245//12 244//12 282//12 281//12 
s 4
f 244//13 243//13 283//13 282//13 
s 2
f 243//12 242//12 284//12 283//12 
s 4
f 242//13 241//13 285//13 284//13 
s 2
f 241//12 240//12 286//12 285//12 
s 4
f 240//13 239//13 287//13 286//13 
s 2
f 239//12 263//12 288//12 287//12 
s 4
f 263//13 262//13 264//13 288//13 
s 8
f 262//15 261//15 265//15 264//15 
s 2
f 261//16 260//16 266//16 265//16 
s 4
f 260//17 259//17 267//17 266//17 
s 1
f 289//10 290//10 291//10 292//10 293//10 
f 294//11 262//11 295//11 296//11 297//11 
f 298//10 299//10 300//10 264//10 301//10 
f 302//11 303//11 304//11 305//11 306//11 
s 2
f 289//18 293//18 294//18 297//18 
f 298//18 301//18 302//18 306//18 
s 4
f 293//13 292//13 262//13 294//13 
f 301//13 264//13 303//13 302//13 
s 8
f 292//15 291//15 295//15 262//15 
f 264//15 300//15 304//15 303//15 
s 2
f 291//16 290//16 296//16 295//16 
f 300//16 299//16 305//16 304//16 
s 4
f 290//17 289//17 297//17 296//17 
f 299//17 298//17 306//17 305//17 
# 41 polygons

