# 3ds Max Wavefront OBJ Exporter v0.97b - (c)2007 guruware
# File Created: 23.04.2013 22:55:27

mtllib blankRoom.mtl

#
# object Box001
#

v  -42.5000 0.0000 60.0000
v  42.5000 0.0000 60.0000
v  42.5000 0.0000 -60.0000
v  -42.5000 0.0000 -60.0000
v  -42.5000 40.0000 60.0000
v  -42.5000 40.0000 -60.0000
v  42.5000 40.0000 -60.0000
v  42.5000 40.0000 60.0000
# 8 vertices

vn 0.0000 1.0000 -0.0000
vn 0.0000 -1.0000 -0.0000
vn 0.0000 0.0000 -1.0000
vn -1.0000 0.0000 -0.0000
vn 0.0000 0.0000 1.0000
vn 1.0000 0.0000 -0.0000
# 6 vertex normals

vt 1.0000 0.0000 0.0000
vt 0.0000 0.0000 0.0000
vt 0.0000 1.0000 0.0000
vt 1.0000 1.0000 0.0000
# 4 texture coords

g Box001
usemtl wire_177028149
s 2
f 1/1/1 2/2/1 3/3/1 4/4/1 
s 4
f 5/2/2 6/3/2 7/4/2 8/1/2 
s 8
f 1/2/3 5/3/3 8/4/3 2/1/3 
s 16
f 2/2/4 8/3/4 7/4/4 3/1/4 
s 32
f 3/2/5 7/3/5 6/4/5 4/1/5 
s 64
f 4/2/6 6/3/6 5/4/6 1/1/6 
# 6 polygons

