# 3ds Max Wavefront OBJ Exporter v0.97b - (c)2007 guruware
# File Created: 23.04.2013 23:30:20

mtllib roomWithWindows.mtl

#
# object Box001
#

v  42.7037 0.0000 -60.1604
v  -42.5000 0.0000 -60.0000
v  -42.5000 0.0000 60.0000
v  42.7037 0.0000 59.8396
v  -42.5000 40.0000 -60.0000
v  42.7037 40.0000 -60.1604
v  42.7037 40.0000 59.8396
v  -42.5000 40.0000 60.0000
v  46.2037 14.3333 5.5062
v  46.2037 25.6667 5.5062
v  46.2037 25.6667 -5.8271
v  46.2037 14.3333 -5.8271
v  -45.8113 14.3333 -5.8550
v  -45.8113 25.6667 -5.8550
v  -45.9848 25.6667 5.6390
v  -45.9848 14.3333 5.6390
v  -42.5000 13.3333 20.0000
v  -42.5000 26.6667 20.0000
v  -42.2963 26.6667 -20.1604
v  -42.2963 13.3333 -20.1604
v  -42.2963 13.3333 -6.8271
v  -42.5000 13.3333 6.6667
v  -42.5000 26.6667 6.6667
v  -42.2963 26.6667 -6.8271
v  -45.7963 14.3333 -19.1731
v  -45.7963 25.6667 -19.1731
v  -45.7963 25.6667 -7.8398
v  -45.7963 14.3333 -7.8398
v  -46.0000 25.6667 18.9873
v  -46.0000 14.3333 18.9873
v  -46.0000 14.3333 7.6540
v  -46.0000 25.6667 7.6540
v  -45.0000 13.3333 19.9873
v  -45.0000 26.6667 19.9873
v  -45.0000 13.3333 6.6540
v  -44.7963 13.3333 -6.8398
v  -44.7963 13.3333 -20.1731
v  -44.7963 26.6667 -20.1731
v  -44.7963 26.6667 -6.8398
v  -45.0000 26.6667 6.6540
v  -44.8114 14.3333 -5.8399
v  -44.9849 14.3333 5.6541
v  -44.8114 25.6667 -5.8399
v  -44.9849 25.6667 5.6541
v  -44.7963 14.3333 -19.1731
v  -44.7963 14.3333 -7.8398
v  -44.7963 25.6667 -19.1731
v  -44.7963 25.6667 -7.8398
v  -45.0000 25.6667 18.9873
v  -45.0000 25.6667 7.6540
v  -45.0000 14.3333 18.9873
v  -45.0000 14.3333 7.6540
v  42.7037 13.3333 -20.1604
v  42.7037 26.6667 -20.1604
v  42.7037 26.6667 19.8396
v  42.7037 13.3333 19.8396
v  42.7037 13.3333 6.5062
v  42.7037 13.3333 -6.8271
v  42.7037 26.6667 -6.8271
v  42.7037 26.6667 6.5062
v  46.2037 14.3333 18.8396
v  46.2037 25.6667 18.8396
v  46.2037 25.6667 7.5062
v  46.2037 14.3333 7.5062
v  46.2037 25.6667 -19.1604
v  46.2037 14.3333 -19.1604
v  46.2037 14.3333 -7.8271
v  46.2037 25.6667 -7.8271
v  45.2037 13.3333 -20.1604
v  45.2037 26.6667 -20.1604
v  45.2037 13.3333 -6.8271
v  45.2037 13.3333 6.5062
v  45.2037 13.3333 19.8396
v  45.2037 26.6667 19.8396
v  45.2037 26.6667 6.5062
v  45.2037 26.6667 -6.8271
v  45.2037 14.3333 5.5062
v  45.2037 14.3333 -5.8271
v  45.2037 25.6667 5.5062
v  45.2037 25.6667 -5.8271
v  45.2037 14.3333 18.8396
v  45.2037 14.3333 7.5062
v  45.2037 25.6667 18.8396
v  45.2037 25.6667 7.5062
v  45.2037 25.6667 -19.1604
v  45.2037 25.6667 -7.8271
v  45.2037 14.3333 -19.1604
v  45.2037 14.3333 -7.8271
# 88 vertices

vn 0.0000 1.0000 -0.0000
vn 0.0000 -1.0000 -0.0000
vn -0.0019 0.0000 -1.0000
vn -1.0000 0.0000 -0.0000
vn 0.0019 0.0000 1.0000
vn 0.9999 0.0000 0.0151
vn 1.0000 0.0000 -0.0000
vn 1.0000 -0.0001 0.0005
vn 1.0000 -0.0031 -0.0041
vn 1.0000 0.0031 -0.0036
vn 1.0000 0.0091 -0.0021
vn 1.0000 -0.0091 -0.0021
vn 0.9999 -0.0105 0.0009
vn 0.9984 0.0556 0.0139
vn 1.0000 0.0047 0.0009
vn 0.9974 0.0706 0.0139
vn 0.0051 0.0000 -1.0000
vn -0.0051 0.0000 1.0000
vn -0.0000 -1.0000 0.0000
vn 0.9999 -0.0000 0.0151
vn -0.0151 0.0000 0.9999
vn 0.0151 -0.0000 -0.9999
vn 0.0000 0.0000 1.0000
vn 0.0000 -0.0000 -1.0000
vn 0.0000 0.0000 -1.0000
vn 0.0000 1.0000 0.0000
vn 0.0000 -0.0000 1.0000
# 27 vertex normals

vt 0.0000 0.6667 0.0000
vt 1.0000 1.0000 0.0000
vt 1.0000 0.3333 0.0000
vt 0.0000 0.0000 0.0000
vt 1.0000 0.5556 0.0000
vt 0.0000 1.0000 0.0000
vt 1.0000 0.0000 0.0000
vt 0.5062 0.3333 0.0000
vt 0.5679 0.6667 0.0000
vt 0.6543 0.6667 0.0000
vt 0.6049 0.3333 0.0000
vt 0.4444 0.3333 0.0000
vt 0.4444 0.6667 0.0000
vt 0.5556 0.6667 0.0000
vt 0.5556 0.3333 0.0000
vt 0.6667 0.0000 0.0000
vt 0.6667 0.3333 0.0000
vt 0.6667 0.6667 0.0000
vt 0.3333 1.0000 0.0000
vt 0.3333 0.6667 0.0000
vt 0.3333 0.3333 0.0000
vt 0.7037 0.3333 0.0000
vt 0.7407 0.6667 0.0000
vt 0.5556 1.0000 0.0000
vt 0.4815 0.6667 0.0000
vt 0.4074 0.3333 0.0000
# 26 texture coords

g Box001
usemtl wire_177028149
s 2
f 1/1/1 2/2/1 3/3/1 
f 3/3/1 4/4/1 1/1/1 
s 4
f 5/1/2 6/2/2 7/5/2 
f 7/5/2 8/4/2 5/1/2 
s 8
f 3/4/3 8/6/3 7/2/3 
f 7/2/3 4/7/3 3/4/3 
s 16
f 9/8/4 10/9/4 11/10/4 
f 11/10/4 12/11/4 9/8/4 
s 32
f 1/4/5 6/6/5 5/2/5 
f 5/2/5 2/7/5 1/4/5 
s 64
f 13/12/6 14/13/6 15/14/6 
f 15/14/6 16/15/6 13/12/6 
f 8/2/7 3/16/8 17/17/7 
f 17/17/7 18/18/7 8/2/7 
f 2/4/9 5/19/10 19/20/11 
f 19/20/11 20/21/12 2/4/9 
f 3/16/8 2/4/9 20/21/12 
f 3/16/8 20/21/12 21/12/13 
f 3/16/8 21/12/13 22/15/14 
f 17/17/7 3/16/8 22/15/14 
f 5/19/10 8/2/7 18/18/7 
f 5/19/10 18/18/7 23/14/15 
f 5/19/10 23/14/15 24/13/16 
f 19/20/11 5/19/10 24/13/16 
f 25/21/7 26/20/7 27/13/7 
f 27/13/7 28/12/7 25/21/7 
f 29/18/7 30/17/7 31/15/7 
f 31/15/7 32/14/7 29/18/7 
s off
f 18/18/17 17/17/17 33/17/17 
f 33/17/17 34/18/17 18/18/17 
f 17/17/1 22/15/1 35/15/1 
f 35/15/1 33/17/1 17/17/1 
f 22/15/1 21/12/1 36/12/1 
f 36/12/1 35/15/1 22/15/1 
f 21/12/1 20/21/1 37/21/1 
f 37/21/1 36/12/1 21/12/1 
f 20/21/18 19/20/18 38/20/18 
f 38/20/18 37/21/18 20/21/18 
f 19/20/2 24/13/2 39/13/2 
f 39/13/2 38/20/2 19/20/2 
f 24/13/19 23/14/19 40/14/19 
f 40/14/19 39/13/19 24/13/19 
f 23/14/2 18/18/2 34/18/2 
f 34/18/2 40/14/2 23/14/2 
f 35/15/6 36/12/6 41/12/6 
f 41/12/20 42/15/20 35/15/20 
f 36/12/6 39/13/6 43/13/6 
f 43/13/6 41/12/6 36/12/6 
f 39/13/6 40/14/6 44/14/6 
f 44/14/20 43/13/20 39/13/20 
f 40/14/6 35/15/6 42/15/6 
f 42/15/6 44/14/6 40/14/6 
f 36/12/7 37/21/7 45/21/7 
f 45/21/7 46/12/7 36/12/7 
f 37/21/7 38/20/7 47/20/7 
f 47/20/7 45/21/7 37/21/7 
f 38/20/7 39/13/7 48/13/7 
f 48/13/7 47/20/7 38/20/7 
f 39/13/7 36/12/7 46/12/7 
f 46/12/7 48/13/7 39/13/7 
f 40/14/7 34/18/7 49/18/7 
f 49/18/7 50/14/7 40/14/7 
f 34/18/7 33/17/7 51/17/7 
f 51/17/7 49/18/7 34/18/7 
f 33/17/7 35/15/7 52/15/7 
f 52/15/7 51/17/7 33/17/7 
f 35/15/7 40/14/7 50/14/7 
f 50/14/7 52/15/7 35/15/7 
f 42/15/1 41/12/1 13/12/1 
f 13/12/1 16/15/1 42/15/1 
f 41/12/21 43/13/21 14/13/21 
f 14/13/21 13/12/21 41/12/21 
f 43/13/19 44/14/19 15/14/19 
f 15/14/19 14/13/19 43/13/19 
f 44/14/22 42/15/22 16/15/22 
f 16/15/22 15/14/22 44/14/22 
f 46/12/1 45/21/1 25/21/1 
f 25/21/1 28/12/1 46/12/1 
f 45/21/23 47/20/23 26/20/23 
f 26/20/23 25/21/23 45/21/23 
f 47/20/2 48/13/2 27/13/2 
f 27/13/2 26/20/2 47/20/2 
f 48/13/24 46/12/24 28/12/24 
f 28/12/24 27/13/24 48/13/24 
f 50/14/2 49/18/2 29/18/2 
f 29/18/2 32/14/2 50/14/2 
f 49/18/25 51/17/25 30/17/25 
f 30/17/25 29/18/25 49/18/25 
f 51/17/1 52/15/1 31/15/1 
f 31/15/1 30/17/1 51/17/1 
f 52/15/23 50/14/23 32/14/23 
f 32/14/23 31/15/23 52/15/23 
s 16
f 6/2/4 1/16/4 53/22/4 
f 53/22/4 54/23/4 6/2/4 
f 4/4/4 7/24/4 55/25/4 
f 55/25/4 56/26/4 4/4/4 
f 1/16/4 4/4/4 56/26/4 
f 1/16/4 56/26/4 57/8/4 
f 1/16/4 57/8/4 58/11/4 
f 53/22/4 1/16/4 58/11/4 
f 7/24/4 6/2/4 54/23/4 
f 7/24/4 54/23/4 59/10/4 
f 7/24/4 59/10/4 60/9/4 
f 55/25/4 7/24/4 60/9/4 
f 61/26/4 62/25/4 63/9/4 
f 63/9/4 64/8/4 61/26/4 
f 65/23/4 66/22/4 67/11/4 
f 67/11/4 68/10/4 65/23/4 
s off
f 54/23/23 53/22/23 69/22/23 
f 69/22/23 70/23/23 54/23/23 
f 53/22/1 58/11/1 71/11/1 
f 71/11/1 69/22/1 53/22/1 
f 58/11/26 57/8/26 72/8/26 
f 72/8/26 71/11/26 58/11/26 
f 57/8/1 56/26/1 73/26/1 
f 73/26/1 72/8/1 57/8/1 
f 56/26/25 55/25/25 74/25/25 
f 74/25/25 73/26/25 56/26/25 
f 55/25/2 60/9/2 75/9/2 
f 75/9/2 74/25/2 55/25/2 
f 60/9/2 59/10/2 76/10/2 
f 76/10/2 75/9/2 60/9/2 
f 59/10/2 54/23/2 70/23/2 
f 70/23/2 76/10/2 59/10/2 
f 71/11/4 72/8/4 77/8/4 
f 77/8/4 78/11/4 71/11/4 
f 72/8/4 75/9/4 79/9/4 
f 79/9/4 77/8/4 72/8/4 
f 75/9/4 76/10/4 80/10/4 
f 80/10/4 79/9/4 75/9/4 
f 76/10/4 71/11/4 78/11/4 
f 78/11/4 80/10/4 76/10/4 
f 72/8/4 73/26/4 81/26/4 
f 81/26/4 82/8/4 72/8/4 
f 73/26/4 74/25/4 83/25/4 
f 83/25/4 81/26/4 73/26/4 
f 74/25/4 75/9/4 84/9/4 
f 84/9/4 83/25/4 74/25/4 
f 75/9/4 72/8/4 82/8/4 
f 82/8/4 84/9/4 75/9/4 
f 76/10/4 70/23/4 85/23/4 
f 85/23/4 86/10/4 76/10/4 
f 70/23/4 69/22/4 87/22/4 
f 87/22/4 85/23/4 70/23/4 
f 69/22/4 71/11/4 88/11/4 
f 88/11/4 87/22/4 69/22/4 
f 71/11/4 76/10/4 86/10/4 
f 86/10/4 88/11/4 71/11/4 
f 78/11/26 77/8/26 9/8/26 
f 9/8/26 12/11/26 78/11/26 
f 77/8/25 79/9/25 10/9/25 
f 10/9/25 9/8/25 77/8/25 
f 79/9/2 80/10/2 11/10/2 
f 11/10/2 10/9/2 79/9/2 
f 80/10/27 78/11/27 12/11/27 
f 12/11/27 11/10/27 80/10/27 
f 82/8/1 81/26/1 61/26/1 
f 61/26/1 64/8/1 82/8/1 
f 81/26/25 83/25/25 62/25/25 
f 62/25/25 61/26/25 81/26/25 
f 83/25/2 84/9/2 63/9/2 
f 63/9/2 62/25/2 83/25/2 
f 84/9/27 82/8/27 64/8/27 
f 64/8/27 63/9/27 84/9/27 
f 86/10/2 85/23/2 65/23/2 
f 65/23/2 68/10/2 86/10/2 
f 85/23/23 87/22/23 66/22/23 
f 66/22/23 65/23/23 85/23/23 
f 87/22/1 88/11/1 67/11/1 
f 67/11/1 66/22/1 87/22/1 
f 88/11/25 86/10/25 68/10/25 
f 68/10/25 67/11/25 88/11/25 
# 172 faces

